<svg width="96" height="96" xmlns="http://www.w3.org/2000/svg" xmlns:xlink="http://www.w3.org/1999/xlink" xml:space="preserve" overflow="hidden"><g transform="translate(-324 -257)"><path d="M412 296 408 296 408 285C408 282.8 406.2 281 404 281L332 281C329.8 281 328 282.8 328 285L328 325C328 327.2 329.8 329 332 329L404 329C406.2 329 408 327.2 408 325L408 314 412 314C414.2 314 416 312.2 416 310L416 300C416 297.8 414.2 296 412 296ZM402 323 334 323 334 287 402 287 402 323Z"/><path d="M338 291 398 291 398 319 338 319Z"/></g></svg>