<svg width="96" height="96" xmlns="http://www.w3.org/2000/svg" xmlns:xlink="http://www.w3.org/1999/xlink" xml:space="preserve" overflow="hidden"><g transform="translate(-173 -36)"><path d="M263.6 72.3 258.4 70.4 258.4 59.5 263.6 57.3 228.4 44.3 185.6 59.3C181.5 61.3 181.4 66.8 181.4 71.3 181.4 72.8 181.6 74.3 181.9 75.7 178.5 77.9 178.4 83 178.4 87.3 178.4 90.8 179.2 94 181.4 96 180.9 97.7 181.2 99.8 181.2 102.3 181.2 106.8 182.4 110.9 186.4 112.3L214.2 123.8 263.4 103.4 258.2 101.5 258.2 90.5 263.4 88.3 255.4 85.3 255.4 75.7 263.6 72.3ZM186.8 66.3 214.6 77.2 254.5 61.1 254.5 69.7 214.6 86.3 186.8 75.3 186.8 66.3ZM254.3 100.8 214.4 117.3 186.5 106.3 186.5 98.5 211.4 108.7 254.4 91.7 254.3 100.8ZM251.5 85.8 211.6 102.3 183.8 91.3 183.8 82.3 212.4 93.7 251.6 77.3 251.6 85.8Z"/></g></svg>