<svg width="96" height="96" xmlns="http://www.w3.org/2000/svg" xmlns:xlink="http://www.w3.org/1999/xlink" xml:space="preserve" overflow="hidden"><g transform="translate(-807 -29)"><path d="M841 53 847 53 847 68 841 68Z"/><path d="M873 72 837 72 837 49 873 49 873 72ZM855 98C849.5 98 845 93.5 845 88 845 82.5 849.5 78 855 78 860.5 78 865 82.5 865 88 865 93.5 860.5 98 855 98ZM885 43 873 43 837 43 831 43 821 53 821 107C821 109.2 822.8 111 825 111L885 111C887.2 111 889 109.2 889 107L889 47C889 44.8 887.2 43 885 43Z"/><path d="M852 85 858 85 858 91 852 91Z"/></g></svg>