<svg width="96" height="96" xmlns="http://www.w3.org/2000/svg" xmlns:xlink="http://www.w3.org/1999/xlink" xml:space="preserve" overflow="hidden"><g transform="translate(-427 -34)"><path d="M499.585 61.585 494.696 66.474 489.807 61.585 486.979 64.413 491.868 69.302 486.979 74.191 489.807 77.02 494.696 72.13 499.585 77.02 502.414 74.191 497.524 69.302 502.414 64.413 499.585 61.585Z"/><path d="M476.315 73.8C476.657 73.2465 477.06 72.7327 477.515 72.268L475.384 70.156C474.775 70.7764 474.235 71.4618 473.775 72.2 473.607 72.4654 473.46 72.7428 473.333 73.03L476.083 74.23C476.149 74.081 476.227 73.9373 476.315 73.8Z"/><path d="M481.952 70.091 481.526 67.122C480.381 67.2822 479.268 67.6196 478.226 68.122L479.539 70.822C480.301 70.455 481.115 70.2084 481.952 70.091Z"/><path d="M473.435 77.17C473.974 78.2039 474.68 79.1413 475.525 79.944L477.669 77.844C477.059 77.2706 476.543 76.6044 476.14 75.87Z"/><path d="M487.356 67.578C486.555 67.3288 485.73 67.1613 484.895 67.078L484.569 70.061C485.188 70.1232 485.799 70.243 486.396 70.419Z"/><path d="M482.807 88.6 485.6 87.5C485.19 86.4658 484.664 85.4815 484.032 84.566L481.553 86.256C482.058 86.9875 482.479 87.7738 482.807 88.6Z"/><path d="M457.749 101.994C457.797 102.003 458.964 102.194 460.814 102.402L461.141 99.42C459.387 99.228 458.261 99.039 458.25 99.037Z"/><path d="M463.864 102.673C464.901 102.744 465.933 102.793 466.929 102.817L467.001 99.817C466.049 99.795 465.063 99.749 464.07 99.681Z"/><path d="M475.646 99.229 476.219 102.175C477.27 101.974 478.306 101.701 479.319 101.356L478.338 98.521C477.458 98.8195 476.559 99.0561 475.646 99.229Z"/><path d="M480.741 97.4 482.341 99.938C483.355 99.3125 484.241 98.5013 484.954 97.547L482.529 95.779C482.041 96.4275 481.434 96.9776 480.741 97.4Z"/><path d="M483.44 91.115C483.487 91.528 483.511 91.9433 483.511 92.359 483.511 92.545 483.511 92.733 483.498 92.924 483.486 93.1741 483.458 93.4232 483.416 93.67L486.372 94.184C486.435 93.8165 486.476 93.4455 486.494 93.073 486.506 92.831 486.511 92.594 486.511 92.359 486.511 91.8273 486.48 91.2961 486.419 90.768Z"/><path d="M479.793 79.874 477.745 82.065C478.411 82.688 479.122 83.365 479.806 84.101L482 82.058C481.253 81.252 480.465 80.5 479.793 79.874Z"/><path d="M469.921 99.813 470.009 102.813C471.092 102.781 472.134 102.713 473.109 102.621L472.816 99.635C471.909 99.723 470.935 99.783 469.921 99.813Z"/><path d="M462.733 75.999 464.733 75.999 464.733 73.632 468.468 73.632 463.734 61.797 459 73.632 462.733 73.632 462.733 75.999Z"/><path d="M498.114 94.142 499.714 94.142 495.857 84.999 492 94.142 493.599 94.142 491 99.571 494.857 99.571 494.857 101.999 496.857 101.999 496.857 99.571 500.714 99.571 498.114 94.142Z"/><path d="M471 92.999 471 94.999 473 94.999 473 92.999 476 92.999 472 82.999 469 90.499 466 82.999 462 92.999 465 92.999 465 94.999 467 94.999 467 92.999 468 92.999 470 92.999 471 92.999Z"/><path d="M505.445 50 454 50 454 40 444 40C439.584 40.005 436.005 43.5838 436 48L436 106C436.005 110.416 439.584 113.995 444 114L496 114 496 124 506 124C510.416 123.995 513.995 120.416 514 116L514 58C513.837 53.4329 510.013 49.8567 505.445 50ZM442 48C442 46.8954 442.895 46 444 46L448 46 448 98 444 98C443.325 97.9997 442.653 98.0847 442 98.253ZM442 106C442 104.895 442.895 104 444 104L454 104 454 56 505.445 56C506.692 55.8832 507.814 56.761 508 58L508 108 444 108C442.895 108 442 107.105 442 106ZM508 116C508 117.105 507.105 118 506 118L502 118 502 114 508 114Z"/></g></svg>