<svg width="96" height="96" xmlns="http://www.w3.org/2000/svg" xmlns:xlink="http://www.w3.org/1999/xlink" xml:space="preserve" overflow="hidden"><g transform="translate(-298 -34)"><path d="M322 73.5 370 73.5 370 79.5 322 79.5Z"/><path d="M317 79.5 318 79.5 318 73.5 317 73.5C315.3 73.5 314 74.8 314 76.5 314 78.2 315.3 79.5 317 79.5"/><path d="M378 76.5C378 74.8 376.7 73.5 375 73.5L374 73.5 374 79.5 375 79.5C376.7 79.5 378 78.2 378 76.5"/><path d="M376 83.5 316 83.5C313.8 83.5 312 85.3 312 87.5L312 116.5C312 118.7 313.8 120.5 316 120.5L376 120.5C378.2 120.5 380 118.7 380 116.5L380 87.5C380 85.3 378.2 83.5 376 83.5M364 90.5C364 94.4 355.9 97.5 346 97.5 336.1 97.5 328 94.4 328 90.5L364 90.5ZM318 108.5C316.9 108.5 316 107.6 316 106.5 316 105.4 316.9 104.5 318 104.5 319.1 104.5 320 105.4 320 106.5 320 107.6 319.1 108.5 318 108.5M322 115.5C320.9 115.5 320 114.6 320 113.5 320 112.4 320.9 111.5 322 111.5 323.1 111.5 324 112.4 324 113.5 324 114.6 323.1 115.5 322 115.5M326 108.5C324.9 108.5 324 107.6 324 106.5 324 105.4 324.9 104.5 326 104.5 327.1 104.5 328 105.4 328 106.5 328 107.6 327.1 108.5 326 108.5M330 115.5C328.9 115.5 328 114.6 328 113.5 328 112.4 328.9 111.5 330 111.5 331.1 111.5 332 112.4 332 113.5 332 114.6 331.1 115.5 330 115.5M334 108.5C332.9 108.5 332 107.6 332 106.5 332 105.4 332.9 104.5 334 104.5 335.1 104.5 336 105.4 336 106.5 336 107.6 335.1 108.5 334 108.5M338 115.5C336.9 115.5 336 114.6 336 113.5 336 112.4 336.9 111.5 338 111.5 339.1 111.5 340 112.4 340 113.5 340 114.6 339.1 115.5 338 115.5M342 108.5C340.9 108.5 340 107.6 340 106.5 340 105.4 340.9 104.5 342 104.5 343.1 104.5 344 105.4 344 106.5 344 107.6 343.1 108.5 342 108.5M346 115.5C344.9 115.5 344 114.6 344 113.5 344 112.4 344.9 111.5 346 111.5 347.1 111.5 348 112.4 348 113.5 348 114.6 347.1 115.5 346 115.5M350 108.5C348.9 108.5 348 107.6 348 106.5 348 105.4 348.9 104.5 350 104.5 351.1 104.5 352 105.4 352 106.5 352 107.6 351.1 108.5 350 108.5M354 115.5C352.9 115.5 352 114.6 352 113.5 352 112.4 352.9 111.5 354 111.5 355.1 111.5 356 112.4 356 113.5 356 114.6 355.1 115.5 354 115.5M358 108.5C356.9 108.5 356 107.6 356 106.5 356 105.4 356.9 104.5 358 104.5 359.1 104.5 360 105.4 360 106.5 360 107.6 359.1 108.5 358 108.5M362 115.5C360.9 115.5 360 114.6 360 113.5 360 112.4 360.9 111.5 362 111.5 363.1 111.5 364 112.4 364 113.5 364 114.6 363.1 115.5 362 115.5M366 108.5C364.9 108.5 364 107.6 364 106.5 364 105.4 364.9 104.5 366 104.5 367.1 104.5 368 105.4 368 106.5 368 107.6 367.1 108.5 366 108.5M370 115.5C368.9 115.5 368 114.6 368 113.5 368 112.4 368.9 111.5 370 111.5 371.1 111.5 372 112.4 372 113.5 372 114.6 371.1 115.5 370 115.5M374 108.5C372.9 108.5 372 107.6 372 106.5 372 105.4 372.9 104.5 374 104.5 375.1 104.5 376 105.4 376 106.5 376 107.6 375.1 108.5 374 108.5"/><path d="M326 47.5 352 47.5 352 62.5 366 62.5 366 68.5 370 68.5 370 56.7 357.9 43.5 322 43.5 322 68.5 326 68.5 326 47.5ZM356 47.5 366 58.5 356 58.5 356 47.5Z"/></g></svg>