<svg width="96" height="96" xmlns="http://www.w3.org/2000/svg" xmlns:xlink="http://www.w3.org/1999/xlink" xml:space="preserve" overflow="hidden"><g transform="translate(-684 -34)"><path d="M756.539 55C754.881 49.7318 749.267 46.8047 743.999 48.4622 740.882 49.4427 738.442 51.8837 737.461 55L698 55 698 61 737.461 61C739.119 66.2682 744.733 69.1953 750.001 67.5378 753.118 66.5573 755.558 64.1163 756.539 61L766 61 766 55ZM747 62C744.791 62 743 60.2091 743 58 743 55.7909 744.791 54 747 54 749.209 54 751 55.7909 751 58 751 60.2091 749.209 62 747 62Z"/><path d="M743 96C738.635 96.0056 734.776 98.8374 733.461 103L698 103 698 109 733.461 109C735.119 114.268 740.733 117.195 746.001 115.538 749.118 114.557 751.558 112.116 752.539 109L766 109 766 103 752.539 103C751.224 98.8374 747.365 96.0056 743 96ZM743 110C740.791 110 739 108.209 739 106 739 103.791 740.791 102 743 102 745.209 102 747 103.791 747 106 747 108.209 745.209 110 743 110Z"/><path d="M718 72C713.635 72.0056 709.776 74.8374 708.461 79L698 79 698 85 708.461 85C710.119 90.2682 715.733 93.1953 721.001 91.5378 724.118 90.5573 726.558 88.1163 727.539 85L766 85 766 79 727.539 79C726.224 74.8374 722.365 72.0056 718 72ZM718 86C715.791 86 714 84.2091 714 82 714 79.7909 715.791 78 718 78 720.209 78 722 79.7909 722 82 722 84.2091 720.209 86 718 86Z"/></g></svg>