<svg width="96" height="96" xmlns="http://www.w3.org/2000/svg" xmlns:xlink="http://www.w3.org/1999/xlink" xml:space="preserve" overflow="hidden"><g transform="translate(-468 -250)"><path d="M510 257 522 257 522 301 510 301Z"/><path d="M537.8 269.9 530.9 279.7C537.6 284.4 542 292.2 542 301 542 315.3 530.3 327 516 327 501.7 327 490 315.3 490 301 490 292.2 494.4 284.4 501.1 279.7L494.2 269.9C484.4 276.7 478 288.1 478 301 478 322 495 339 516 339 537 339 554 322 554 301 554 288.1 547.6 276.7 537.8 269.9Z"/></g></svg>