<svg width="96" height="96" xmlns="http://www.w3.org/2000/svg" xmlns:xlink="http://www.w3.org/1999/xlink" xml:space="preserve" overflow="hidden"><g transform="translate(-44 -36)"><path d="M67 56 78 56 78 62 106 62 106 56 117 56 117 118 67 118 67 56ZM92.1 48C93.7 48 95 49.4 95 51 95 52.7 93.7 54 92 54 90.3 54 89 52.7 89 51 89 49.3 90.3 48 92.1 48ZM61 54 61 120C61 122.2 62.8 124 65 124L119 124C121.2 124 123 122.2 123 120L123 54C123 51.8 121.2 50 119 50L102 50 102 48C102 45.8 100.2 44 98 44L86 44C83.8 44 82 45.8 82 48L82 50 65 50C62.8 50 61 51.8 61 54Z"/><path d="M73 70 90 70 90 74 73 74Z"/><path d="M73 82 90 82 90 86 73 86Z"/><path d="M73 94 90 94 90 98 73 98Z"/><path d="M73 106 90 106 90 110 73 110Z"/><path d="M101.5 92.5 108.5 92.5 108.5 99.5 101.5 99.5Z"/><path d="M101.5 104.5 108.5 104.5 108.5 111.5 101.5 111.5Z"/><path d="M96.9 71.8 99 69.7 101.6 72.3 108.2 65.7 110.3 67.8 101.6 76.5Z"/><path d="M96.9 83.8 99 81.7 101.6 84.3 108.2 77.7 110.3 79.8 101.6 88.5Z"/></g></svg>