<svg width="96" height="96" xmlns="http://www.w3.org/2000/svg" xmlns:xlink="http://www.w3.org/1999/xlink" xml:space="preserve" overflow="hidden"><g transform="translate(-166 -323)"><path d="M254 370C254 366.7 251.3 364 248 364L229 364C227.4 364 226.1 362.7 226 361.1 226.1 359.3 229 355.7 229 342 229 338.7 226.3 336 223 336 219.7 336 217 338.7 217 342 217 357.2 199.3 365.8 199 366L199 398C206.1 398 206.6 406 220 406 224.5 406 238 406 238 406 241.3 406 244 403.3 244 400 244 398.4 243.4 397 242.4 396 242.6 396 242.8 396 243 396 246.3 396 249 393.3 249 390 249 388.4 248.4 386.9 247.3 385.8 250 385.2 252 382.8 252 380 252 378.3 251.3 376.7 250.1 375.6 252.4 374.8 254 372.6 254 370Z"/><path d="M189 361 174 361 174 403 189 403C191.2 403 193 401.2 193 399L193 365C193 362.8 191.2 361 189 361Z"/></g></svg>