<svg width="96" height="96" xmlns="http://www.w3.org/2000/svg" xmlns:xlink="http://www.w3.org/1999/xlink" xml:space="preserve" overflow="hidden"><g transform="translate(-184 -257)"><path d="M232 282C219.3 282 207.8 287.2 199.5 295.5L205.2 301.2C212 294.3 221.5 290 232 290 242.5 290 252 294.3 258.9 301.1L264.6 295.4C256.1 287.2 244.7 282 232 282Z"/><path d="M208 304 213.7 309.7C218.2 304.9 224.8 302 232 302 239.2 302 245.7 304.9 250.4 309.6L256 304C249.8 297.8 241.3 294 232 294 222.7 294 214.1 297.8 208 304Z"/><path d="M216.5 312.5 222.2 318.2C224.7 315.7 228.2 314.1 232.1 314.1 236 314.1 239.5 315.7 242 318.2L247.7 312.5C243.7 308.5 238.2 306 232.2 306 226.2 306 220.4 308.5 216.5 312.5Z"/><path d="M224.9 320.9 232 328 239.1 320.9C237.2 319.1 234.8 318 232 318 229.2 318 226.7 319.1 224.9 320.9Z"/></g></svg>